<svg xmlns="http://www.w3.org/2000/svg" viewBox="0 0 100 100" width="512" height="512" role="img" aria-label="Lethal Chess">
	<!-- The app's own Monolith knight on two squares of a board, with the Obsidian accent as its ground. -->
	<rect width="100" height="100" rx="22" fill="#131316"/>
	<path d="M0 0h50v50H0z M50 50h50v50H50z" fill="#232328"/>
	<g transform="translate(50 49.5) scale(.8) translate(-50 -50)">
		<g fill="#ebe8e2" stroke="#0b0b0d" stroke-width="5.5" stroke-linejoin="round">
			<path d="M33 76 L33 66 C33 59 35 54 38 50 L28 46 C22 45 20 40 22 35 C25 30 31 27 37 27 C40 24 43 18 45 13 L51 15 C55 18 57 22 57 27 C66 34 70 50 70 66 L70 76 Z"/>
			<rect x="31" y="74" width="38" height="8" rx="2"/>
			<rect x="25" y="81" width="50" height="10" rx="3"/>
		</g>
	</g>
	<rect x="33" y="88" width="34" height="4" rx="2" fill="#8ec5ff"/>
</svg>
